<?xml version="1.0" encoding="UTF-8" standalone="yes"?>
<!DOCTYPE svg PUBLIC "-//W3C//DTD SVG 1.1//EN" "http://www.w3.org/Graphics/SVG/1.1/DTD/svg11.dtd">

<svg width="500" height="500" viewBox="0 0 500 500" xmlns="http://www.w3.org/2000/svg" xmlns:xlink="http://www.w3.org/1999/xlink" version="1.1" baseProfile="full">
    <g transform="scale(1.000000,-1.000000) translate(0,-500)">
        <path d="M 473.361809 237.180905 C 473.361809 367.620016 367.620016 473.361809 237.180905 473.361809 C 106.741793 473.361809 1.000000 367.620016 1.000000 237.180905 C 1.000000 106.741793 106.741793 1.000000 237.180905 1.000000 C 367.620016 1.000000 473.361809 106.741793 473.361809 237.180905 Z" transform="scale(1.000000,1.000000) translate(12.819095,12.819090)" fill="#ffffff" opacity="1.000000"></path>
        <path d="M 251.112900 2.338500 L 251.232900 2.340100 L 254.276200 2.397900 L 254.396600 2.400900 L 257.430400 2.497000 L 257.550500 2.501600 L 260.574600 2.635700 L 260.694700 2.641800 L 263.708800 2.813700 L 263.828500 2.821200 L 266.832400 3.030600 L 266.952300 3.039800 L 269.945800 3.286600 L 270.065400 3.297200 L 273.048200 3.581100 L 273.167600 3.593200 L 276.139500 3.914000 L 276.258400 3.927600 L 279.219200 4.285000 L 279.397300 4.308200 L 285.284500 5.132000 L 285.520700 5.168100 L 291.360600 6.135600 L 291.595500 6.177600 L 297.386200 7.287100 L 297.619300 7.334800 L 303.359100 8.584300 L 303.590500 8.637700 L 309.277300 10.025400 L 309.506600 10.084400 L 315.138800 11.608500 L 315.366100 11.673000 L 320.941600 13.331600 L 321.166400 13.401500 L 326.683500 15.192700 L 326.905800 15.267900 L 332.362700 17.189800 L 332.582800 17.270400 L 337.977400 19.321300 L 338.194600 19.407000 L 343.525300 21.585000 L 343.739700 21.675700 L 349.004500 23.978900 L 349.216000 24.074500 L 354.413100 26.501000 L 354.621700 26.601500 L 359.749300 29.149600 L 359.954800 29.254800 L 365.010900 31.922500 L 365.213300 32.032500 L 370.196100 34.818000 L 370.395200 34.932500 L 375.302900 37.833900 L 375.498900 37.952900 L 380.329700 40.968500 L 380.522200 41.092000 L 385.274000 44.219700 L 385.463200 44.347500 L 390.134400 47.585700 L 390.319900 47.717600 L 394.908600 51.064200 L 395.090900 51.200600 L 399.595100 54.653900 L 399.773900 54.794300 L 404.191800 58.352500 L 404.366700 58.496900 L 408.696600 62.158000 L 408.868000 62.306500 L 413.107900 66.068700 L 413.275600 66.221100 L 417.423600 70.082500 L 417.587600 70.238800 L 421.642000 74.197600 L 421.802200 74.357800 L 425.761000 78.412200 L 425.917300 78.576200 L 429.778700 82.724200 L 429.931100 82.891900 L 433.693300 87.131800 L 433.841800 87.303200 L 437.502900 91.633100 L 437.647300 91.808000 L 441.205500 96.225900 L 441.345900 96.404700 L 444.799200 100.908900 L 444.935600 101.091200 L 448.282200 105.679900 L 448.414100 105.865400 L 451.652300 110.536600 L 451.780100 110.725800 L 454.907800 115.477600 L 455.031300 115.670100 L 458.046900 120.500900 L 458.165900 120.696900 L 461.067300 125.604600 L 461.181800 125.803700 L 463.967300 130.786500 L 464.077300 130.988900 L 466.745000 136.045000 L 466.850200 136.250500 L 469.398300 141.378100 L 469.498800 141.586700 L 471.925300 146.783800 L 472.020900 146.995300 L 474.324100 152.260100 L 474.414800 152.474500 L 476.592800 157.805200 L 476.678500 158.022400 L 478.729400 163.417000 L 478.810000 163.637100 L 480.731900 169.094000 L 480.807100 169.316300 L 482.598300 174.833400 L 482.668200 175.058200 L 484.326800 180.633700 L 484.391300 180.861000 L 485.915400 186.493200 L 485.974400 186.722500 L 487.362100 192.409300 L 487.415500 192.640700 L 488.665000 198.380500 L 488.712700 198.613600 L 489.822200 204.404300 L 489.864200 204.639200 L 490.831700 210.479100 L 490.867800 210.715300 L 491.691600 216.602500 L 491.714800 216.780600 L 492.072200 219.741400 L 492.085800 219.860300 L 492.406600 222.832200 L 492.418700 222.951600 L 492.702600 225.934400 L 492.713200 226.054000 L 492.960000 229.047500 L 492.969200 229.167400 L 493.178600 232.171300 L 493.186100 232.291000 L 493.358000 235.305100 L 493.364100 235.425200 L 493.498200 238.449300 L 493.502800 238.569400 L 493.598900 241.603200 L 493.601900 241.723600 L 493.659700 244.766900 L 493.661300 244.886900 L 493.680700 247.939500 L 493.680700 248.060200 L 493.661300 251.112900 L 493.659700 251.232900 L 493.601900 254.276200 L 493.598900 254.396600 L 493.502800 257.430400 L 493.498200 257.550500 L 493.364100 260.574600 L 493.358000 260.694700 L 493.186100 263.708800 L 493.178600 263.828500 L 492.969200 266.832400 L 492.960000 266.952300 L 492.713200 269.945800 L 492.702600 270.065400 L 492.418700 273.048200 L 492.406600 273.167600 L 492.085800 276.139500 L 492.072200 276.258500 L 491.714800 279.219200 L 491.691600 279.397100 L 490.867800 285.284400 L 490.831700 285.520700 L 489.864200 291.360600 L 489.822200 291.595500 L 488.712700 297.386200 L 488.665000 297.619300 L 487.415500 303.359100 L 487.362100 303.590500 L 485.974400 309.277300 L 485.915400 309.506600 L 484.391300 315.138800 L 484.326800 315.366100 L 482.668200 320.941600 L 482.598300 321.166400 L 480.807100 326.683500 L 480.731900 326.905800 L 478.810000 332.362700 L 478.729400 332.582800 L 476.678500 337.977400 L 476.592800 338.194600 L 474.414800 343.525300 L 474.324100 343.739700 L 472.020900 349.004500 L 471.925300 349.216000 L 469.498800 354.413100 L 469.398300 354.621700 L 466.850200 359.749300 L 466.745000 359.954800 L 464.077300 365.010900 L 463.967300 365.213300 L 461.181800 370.196100 L 461.067300 370.395200 L 458.165900 375.302900 L 458.046900 375.498900 L 455.031300 380.329700 L 454.907800 380.522200 L 451.780100 385.274000 L 451.652300 385.463200 L 448.414100 390.134400 L 448.282100 390.320000 L 444.935500 394.908600 L 444.799300 395.090800 L 441.346000 399.595100 L 441.205500 399.773900 L 437.647300 404.191800 L 437.502900 404.366700 L 433.841800 408.696600 L 433.693300 408.868000 L 429.931100 413.107900 L 429.778700 413.275600 L 425.917300 417.423600 L 425.761000 417.587600 L 421.802200 421.642000 L 421.642000 421.802200 L 417.587600 425.761000 L 417.423600 425.917300 L 413.275600 429.778700 L 413.107900 429.931100 L 408.868000 433.693300 L 408.696600 433.841800 L 404.366700 437.502900 L 404.191700 437.647300 L 399.773800 441.205400 L 399.595200 441.345800 L 395.091000 444.799200 L 394.908600 444.935600 L 390.319900 448.282200 L 390.134400 448.414100 L 385.463200 451.652300 L 385.274000 451.780100 L 380.522200 454.907800 L 380.329500 455.031300 L 375.498700 458.046800 L 375.303000 458.165800 L 370.395300 461.067300 L 370.196100 461.181800 L 365.213300 463.967300 L 365.010900 464.077300 L 359.954800 466.745000 L 359.749200 466.850300 L 354.621600 469.398300 L 354.413200 469.498700 L 349.216100 471.925300 L 349.004500 472.020900 L 343.739700 474.324100 L 343.525300 474.414800 L 338.194600 476.592800 L 337.977400 476.678500 L 332.582800 478.729400 L 332.362700 478.810000 L 326.905800 480.731900 L 326.683500 480.807100 L 321.166400 482.598300 L 320.941600 482.668200 L 315.366100 484.326800 L 315.138700 484.391400 L 309.506500 485.915400 L 309.277400 485.974300 L 303.590600 487.362100 L 303.359100 487.415500 L 297.619300 488.665000 L 297.386200 488.712700 L 291.595500 489.822200 L 291.360600 489.864200 L 285.520700 490.831700 L 285.284500 490.867800 L 279.397300 491.691600 L 279.219200 491.714800 L 276.258400 492.072200 L 276.139500 492.085800 L 273.167600 492.406600 L 273.048200 492.418700 L 270.065400 492.702600 L 269.945800 492.713200 L 266.952300 492.960000 L 266.832400 492.969200 L 263.828500 493.178600 L 263.708800 493.186100 L 260.694700 493.358000 L 260.574600 493.364100 L 257.550500 493.498200 L 257.430400 493.502800 L 254.396600 493.598900 L 254.276200 493.601900 L 251.232900 493.659700 L 251.112600 493.661300 L 248.060000 493.680600 L 247.939900 493.680600 L 244.887200 493.661300 L 244.766900 493.659700 L 241.723600 493.601900 L 241.603200 493.598900 L 238.569400 493.502800 L 238.449300 493.498200 L 235.425200 493.364100 L 235.305100 493.358000 L 232.291000 493.186100 L 232.171300 493.178600 L 229.167400 492.969200 L 229.047500 492.960000 L 226.054000 492.713200 L 225.934400 492.702600 L 222.951600 492.418700 L 222.832200 492.406600 L 219.860300 492.085800 L 219.741400 492.072200 L 216.780600 491.714800 L 216.602500 491.691600 L 210.715300 490.867800 L 210.479100 490.831700 L 204.639200 489.864200 L 204.404300 489.822200 L 198.613600 488.712700 L 198.380500 488.665000 L 192.640700 487.415500 L 192.409200 487.362100 L 186.722400 485.974300 L 186.493300 485.915400 L 180.861100 484.391400 L 180.633700 484.326800 L 175.058200 482.668200 L 174.833400 482.598300 L 169.316300 480.807100 L 169.094000 480.731900 L 163.637100 478.810000 L 163.417000 478.729400 L 158.022400 476.678500 L 157.805200 476.592800 L 152.474500 474.414800 L 152.260100 474.324100 L 146.995300 472.020900 L 146.783700 471.925300 L 141.586600 469.498700 L 141.378200 469.398300 L 136.250600 466.850300 L 136.045000 466.745000 L 130.988900 464.077300 L 130.786500 463.967300 L 125.803700 461.181800 L 125.604500 461.067300 L 120.696800 458.165800 L 120.501100 458.046800 L 115.670300 455.031300 L 115.477600 454.907800 L 110.725800 451.780100 L 110.536600 451.652300 L 105.865400 448.414100 L 105.679900 448.282200 L 101.091200 444.935600 L 100.908800 444.799200 L 96.404600 441.345800 L 96.226000 441.205400 L 91.808100 437.647300 L 91.633100 437.502900 L 87.303200 433.841800 L 87.131800 433.693300 L 82.891900 429.931100 L 82.724200 429.778700 L 78.576200 425.917300 L 78.412200 425.761000 L 74.357800 421.802200 L 74.197600 421.642000 L 70.238800 417.587600 L 70.082500 417.423600 L 66.221100 413.275600 L 66.068700 413.107900 L 62.306500 408.868000 L 62.158000 408.696600 L 58.496900 404.366700 L 58.352500 404.191800 L 54.794300 399.773900 L 54.653800 399.595100 L 51.200500 395.090800 L 51.064300 394.908600 L 47.717700 390.320000 L 47.585700 390.134400 L 44.347500 385.463200 L 44.219700 385.274000 L 41.092000 380.522200 L 40.968500 380.329700 L 37.952900 375.498900 L 37.833900 375.302900 L 34.932500 370.395200 L 34.818000 370.196100 L 32.032500 365.213300 L 31.922500 365.010900 L 29.254800 359.954800 L 29.149600 359.749300 L 26.601500 354.621700 L 26.501000 354.413100 L 24.074500 349.216000 L 23.978900 349.004500 L 21.675700 343.739700 L 21.585000 343.525300 L 19.407000 338.194600 L 19.321300 337.977400 L 17.270400 332.582800 L 17.189800 332.362700 L 15.267900 326.905800 L 15.192700 326.683500 L 13.401500 321.166400 L 13.331600 320.941600 L 11.673000 315.366100 L 11.608500 315.138800 L 10.084400 309.506600 L 10.025400 309.277300 L 8.637700 303.590500 L 8.584300 303.359100 L 7.334800 297.619300 L 7.287100 297.386200 L 6.177600 291.595500 L 6.135600 291.360600 L 5.168100 285.520700 L 5.132000 285.284400 L 4.308200 279.397100 L 4.285000 279.219200 L 3.927600 276.258500 L 3.914000 276.139500 L 3.593200 273.167600 L 3.581100 273.048200 L 3.297200 270.065400 L 3.286600 269.945800 L 3.039800 266.952300 L 3.030600 266.832400 L 2.821200 263.828500 L 2.813700 263.708800 L 2.641800 260.694700 L 2.635700 260.574600 L 2.501600 257.550500 L 2.497000 257.430400 L 2.400900 254.396600 L 2.397900 254.276200 L 2.340100 251.232900 L 2.338500 251.112900 L 2.319100 248.060200 L 2.319100 247.939500 L 2.338500 244.886900 L 2.340100 244.766900 L 2.397900 241.723600 L 2.400900 241.603200 L 2.497000 238.569400 L 2.501600 238.449300 L 2.635700 235.425200 L 2.641800 235.305100 L 2.813700 232.291000 L 2.821200 232.171300 L 3.030600 229.167400 L 3.039800 229.047500 L 3.286600 226.054000 L 3.297200 225.934400 L 3.581100 222.951600 L 3.593200 222.832200 L 3.914000 219.860300 L 3.927600 219.741400 L 4.285000 216.780600 L 4.308200 216.602500 L 5.132000 210.715300 L 5.168100 210.479100 L 6.135600 204.639200 L 6.177600 204.404300 L 7.287100 198.613600 L 7.334800 198.380500 L 8.584300 192.640700 L 8.637700 192.409300 L 10.025400 186.722500 L 10.084400 186.493200 L 11.608500 180.861000 L 11.673000 180.633700 L 13.331600 175.058200 L 13.401500 174.833400 L 15.192700 169.316300 L 15.267900 169.094000 L 17.189800 163.637100 L 17.270400 163.417000 L 19.321300 158.022400 L 19.407000 157.805200 L 21.585000 152.474500 L 21.675700 152.260100 L 23.978900 146.995300 L 24.074500 146.783800 L 26.501000 141.586700 L 26.601500 141.378100 L 29.149600 136.250500 L 29.254800 136.045000 L 31.922500 130.988900 L 32.032500 130.786500 L 34.818000 125.803700 L 34.932500 125.604600 L 37.833900 120.696900 L 37.952900 120.500900 L 40.968500 115.670100 L 41.092000 115.477600 L 44.219700 110.725800 L 44.347500 110.536600 L 47.585700 105.865400 L 47.717600 105.679900 L 51.064200 101.091200 L 51.200600 100.908900 L 54.653900 96.404700 L 54.794300 96.225900 L 58.352500 91.808000 L 58.496900 91.633100 L 62.158000 87.303200 L 62.306500 87.131800 L 66.068700 82.891900 L 66.221100 82.724200 L 70.082500 78.576200 L 70.238800 78.412200 L 74.197600 74.357800 L 74.357800 74.197600 L 78.412200 70.238800 L 78.576200 70.082500 L 82.724200 66.221100 L 82.891900 66.068700 L 87.131800 62.306500 L 87.303200 62.158000 L 91.633100 58.496900 L 91.808000 58.352500 L 96.225900 54.794300 L 96.404700 54.653900 L 100.908900 51.200600 L 101.091200 51.064200 L 105.679900 47.717600 L 105.865400 47.585700 L 110.536600 44.347500 L 110.725800 44.219700 L 115.477600 41.092000 L 115.670100 40.968500 L 120.500900 37.952900 L 120.696900 37.833900 L 125.604600 34.932500 L 125.803700 34.818000 L 130.786500 32.032500 L 130.988900 31.922500 L 136.045000 29.254800 L 136.250500 29.149600 L 141.378100 26.601500 L 141.586700 26.501000 L 146.783800 24.074500 L 146.995300 23.978900 L 152.260100 21.675700 L 152.474500 21.585000 L 157.805200 19.407000 L 158.022400 19.321300 L 163.417000 17.270400 L 163.637100 17.189800 L 169.094000 15.267900 L 169.316300 15.192700 L 174.833400 13.401500 L 175.058200 13.331600 L 180.633700 11.673000 L 180.861000 11.608500 L 186.493200 10.084400 L 186.722500 10.025400 L 192.409300 8.637700 L 192.640700 8.584300 L 198.380500 7.334800 L 198.613600 7.287100 L 204.404300 6.177600 L 204.639200 6.135600 L 210.479100 5.168100 L 210.715300 5.132000 L 216.602500 4.308200 L 216.780600 4.285000 L 219.741400 3.927600 L 219.860300 3.914000 L 222.832200 3.593200 L 222.951600 3.581100 L 225.934400 3.297200 L 226.054000 3.286600 L 229.047500 3.039800 L 229.167400 3.030600 L 232.171300 2.821200 L 232.291000 2.813700 L 235.305100 2.641800 L 235.425200 2.635700 L 238.449300 2.501600 L 238.569400 2.497000 L 241.603200 2.400900 L 241.723600 2.397900 L 244.766900 2.340100 L 244.886900 2.338500 L 247.939600 2.319100 L 248.060300 2.319100 Z M 244.947300 11.838400 L 241.904000 11.896200 L 238.870200 11.992300 L 235.846100 12.126400 L 232.832000 12.298300 L 229.828100 12.507700 L 226.834600 12.754500 L 223.851800 13.038400 L 220.879900 13.359200 L 217.919100 13.716600 L 212.031900 14.540400 L 206.192000 15.507900 L 200.401300 16.617400 L 194.661500 17.866900 L 188.974700 19.254600 L 183.342500 20.778700 L 177.767000 22.437300 L 172.249900 24.228500 L 166.793000 26.150400 L 161.398400 28.201300 L 156.067700 30.379300 L 150.802900 32.682500 L 145.605800 35.109000 L 140.478200 37.657100 L 135.422100 40.324800 L 130.439300 43.110300 L 125.531600 46.011700 L 120.700800 49.027300 L 115.949000 52.155000 L 111.277800 55.393200 L 106.689100 58.739800 L 102.184900 62.193100 L 97.767000 65.751300 L 93.437100 69.412400 L 89.197200 73.174600 L 85.049200 77.036000 L 80.994800 80.994800 L 77.036000 85.049200 L 73.174600 89.197200 L 69.412400 93.437100 L 65.751300 97.767000 L 62.193100 102.184900 L 58.739800 106.689100 L 55.393200 111.277800 L 52.155000 115.949000 L 49.027300 120.700800 L 46.011700 125.531600 L 43.110300 130.439300 L 40.324800 135.422100 L 37.657100 140.478200 L 35.109000 145.605800 L 32.682500 150.802900 L 30.379300 156.067700 L 28.201300 161.398400 L 26.150400 166.793000 L 24.228500 172.249900 L 22.437300 177.767000 L 20.778700 183.342500 L 19.254600 188.974700 L 17.866900 194.661500 L 16.617400 200.401300 L 15.507900 206.192000 L 14.540400 212.031900 L 13.716600 217.919100 L 13.359200 220.879900 L 13.038400 223.851800 L 12.754500 226.834600 L 12.507700 229.828100 L 12.298300 232.832000 L 12.126400 235.846100 L 11.992300 238.870200 L 11.896200 241.904000 L 11.838400 244.947300 L 11.819000 247.999900 L 11.838400 251.052600 L 11.896200 254.095900 L 11.992300 257.129700 L 12.126400 260.153800 L 12.298300 263.167900 L 12.507700 266.171800 L 12.754500 269.165300 L 13.038400 272.148100 L 13.359200 275.120000 L 13.716600 278.080700 L 14.540400 283.968000 L 15.507900 289.807900 L 16.617400 295.598600 L 17.866900 301.338400 L 19.254600 307.025200 L 20.778700 312.657400 L 22.437300 318.232900 L 24.228500 323.750000 L 26.150400 329.206900 L 28.201300 334.601500 L 30.379300 339.932200 L 32.682500 345.197000 L 35.109000 350.394100 L 37.657100 355.521700 L 40.324800 360.577800 L 43.110300 365.560600 L 46.011700 370.468300 L 49.027300 375.299100 L 52.155000 380.050900 L 55.393200 384.722100 L 58.739800 389.310700 L 62.193100 393.815000 L 65.751300 398.232900 L 69.412400 402.562800 L 73.174600 406.802700 L 77.036000 410.950700 L 80.994800 415.005100 L 85.049200 418.963900 L 89.197200 422.825300 L 93.437100 426.587500 L 97.767000 430.248600 L 102.184900 433.806700 L 106.689100 437.260100 L 111.277800 440.606700 L 115.949000 443.844900 L 120.700800 446.972600 L 125.531600 449.988100 L 130.439300 452.889600 L 135.422100 455.675100 L 140.478200 458.342800 L 145.605800 460.890800 L 150.802900 463.317400 L 156.067700 465.620600 L 161.398400 467.798600 L 166.793000 469.849500 L 172.249900 471.771400 L 177.767000 473.562600 L 183.342500 475.221200 L 188.974700 476.745200 L 194.661500 478.133000 L 200.401300 479.382500 L 206.192000 480.492000 L 212.031900 481.459500 L 217.919100 482.283300 L 220.879900 482.640700 L 223.851800 482.961500 L 226.834600 483.245400 L 229.828100 483.492200 L 232.832000 483.701600 L 235.846100 483.873500 L 238.870200 484.007600 L 241.904000 484.103700 L 244.947300 484.161500 L 248.000000 484.180800 L 251.052600 484.161500 L 254.095900 484.103700 L 257.129700 484.007600 L 260.153800 483.873500 L 263.167900 483.701600 L 266.171800 483.492200 L 269.165300 483.245400 L 272.148100 482.961500 L 275.120000 482.640700 L 278.080800 482.283300 L 283.968000 481.459500 L 289.807900 480.492000 L 295.598600 479.382500 L 301.338400 478.133000 L 307.025200 476.745200 L 312.657400 475.221200 L 318.232900 473.562600 L 323.750000 471.771400 L 329.206900 469.849500 L 334.601500 467.798600 L 339.932200 465.620600 L 345.197000 463.317400 L 350.394100 460.890800 L 355.521700 458.342800 L 360.577800 455.675100 L 365.560600 452.889600 L 370.468300 449.988100 L 375.299100 446.972600 L 380.050900 443.844900 L 384.722100 440.606700 L 389.310800 437.260100 L 393.815000 433.806700 L 398.232900 430.248600 L 402.562800 426.587500 L 406.802700 422.825300 L 410.950700 418.963900 L 415.005100 415.005100 L 418.963900 410.950700 L 422.825300 406.802700 L 426.587500 402.562800 L 430.248600 398.232900 L 433.806800 393.815000 L 437.260100 389.310700 L 440.606700 384.722100 L 443.844900 380.050900 L 446.972600 375.299100 L 449.988200 370.468300 L 452.889600 365.560600 L 455.675100 360.577800 L 458.342800 355.521700 L 460.890900 350.394100 L 463.317400 345.197000 L 465.620600 339.932200 L 467.798600 334.601500 L 469.849500 329.206900 L 471.771400 323.750000 L 473.562600 318.232900 L 475.221200 312.657400 L 476.745300 307.025200 L 478.133000 301.338400 L 479.382500 295.598600 L 480.492000 289.807900 L 481.459500 283.968000 L 482.283300 278.080700 L 482.640700 275.120000 L 482.961500 272.148100 L 483.245400 269.165300 L 483.492200 266.171800 L 483.701600 263.167900 L 483.873500 260.153800 L 484.007600 257.129700 L 484.103700 254.095900 L 484.161500 251.052600 L 484.180900 247.999900 L 484.161500 244.947300 L 484.103700 241.904000 L 484.007600 238.870200 L 483.873500 235.846100 L 483.701600 232.832000 L 483.492200 229.828100 L 483.245400 226.834600 L 482.961500 223.851800 L 482.640700 220.879900 L 482.283300 217.919100 L 481.459500 212.031900 L 480.492000 206.192000 L 479.382500 200.401300 L 478.133000 194.661500 L 476.745300 188.974700 L 475.221200 183.342500 L 473.562600 177.767000 L 471.771400 172.249900 L 469.849500 166.793000 L 467.798600 161.398400 L 465.620600 156.067700 L 463.317400 150.802900 L 460.890900 145.605800 L 458.342800 140.478200 L 455.675100 135.422100 L 452.889600 130.439300 L 449.988200 125.531600 L 446.972600 120.700800 L 443.844900 115.949000 L 440.606700 111.277800 L 437.260100 106.689100 L 433.806800 102.184900 L 430.248600 97.767000 L 426.587500 93.437100 L 422.825300 89.197200 L 418.963900 85.049200 L 415.005100 80.994800 L 410.950700 77.036000 L 406.802700 73.174600 L 402.562800 69.412400 L 398.232900 65.751300 L 393.815000 62.193100 L 389.310800 58.739800 L 384.722100 55.393200 L 380.050900 52.155000 L 375.299100 49.027300 L 370.468300 46.011700 L 365.560600 43.110300 L 360.577800 40.324800 L 355.521700 37.657100 L 350.394100 35.109000 L 345.197000 32.682500 L 339.932200 30.379300 L 334.601500 28.201300 L 329.206900 26.150400 L 323.750000 24.228500 L 318.232900 22.437300 L 312.657400 20.778700 L 307.025200 19.254600 L 301.338400 17.866900 L 295.598600 16.617400 L 289.807900 15.507900 L 283.968000 14.540400 L 278.080800 13.716600 L 275.120000 13.359200 L 272.148100 13.038400 L 269.165300 12.754500 L 266.171800 12.507700 L 263.167900 12.298300 L 260.153800 12.126400 L 257.129700 11.992300 L 254.095900 11.896200 L 251.052600 11.838400 L 248.000000 11.819000 Z" transform="scale(1.000000,1.000000) translate(2.000000,2.000000)" fill="#242424" opacity="1.000000"></path>
        <path d="M 54.869827 159.275863 L 2.303039 110.908828 C -1.452064 107.454040 3.730118 101.822547 7.485222 105.277343 L 60.052009 153.644378 C 63.683727 156.985091 58.501545 162.616576 54.869827 159.275863 Z M 63.506801 149.889266 L 10.940014 101.524566 C 7.305968 98.181518 12.490478 92.552360 16.122196 95.893074 L 68.688988 144.257781 C 72.441757 147.710235 67.261902 153.344054 63.506801 149.889266 Z M 98.054672 112.340576 L 45.487884 63.975868 C 41.735107 60.521084 46.914963 54.889591 50.670067 58.344379 L 103.236854 106.711410 C 106.989631 110.163871 101.807449 115.797691 98.054672 112.340576 Z M 115.328620 93.567382 L 62.761833 45.202679 C 59.130115 41.859634 64.312294 36.230472 67.944015 39.571186 L 120.510803 87.938224 C 124.265907 91.390678 119.081397 97.022171 115.328620 93.567382 Z M 89.417709 121.729484 L 36.850922 73.362449 C 33.095818 69.909988 38.278004 64.276176 42.033104 67.730964 L 94.599891 116.095664 C 98.354995 119.550453 93.172813 125.181945 89.417709 121.729484 Z M 106.691642 102.953971 L 54.124863 54.586941 C 50.493141 51.243900 55.675323 45.614738 59.309372 48.955452 L 111.876159 97.320152 C 115.628936 100.777275 110.444427 106.408760 106.691650 102.953971 Z M 72.143760 140.502685 L 19.576975 92.135643 C 15.821871 88.680854 21.004053 83.049369 24.759157 86.504150 L 77.325943 134.868850 C 81.081047 138.323638 75.898864 143.957458 72.143760 140.502670 Z M 80.780739 131.116088 L 28.213947 82.751381 C 24.579903 79.408340 29.764414 73.776848 33.396130 77.117561 L 85.962921 125.484596 C 89.715690 128.937057 84.535843 134.570876 80.780739 131.116088 Z M 123.967910 84.180778 L 71.398796 35.816082 C 67.643692 32.361294 72.825874 26.729801 76.583305 30.184589 L 129.147766 78.549293 C 132.900543 82.004081 127.718360 87.635574 123.967910 84.180786 Z M 141.241866 65.407600 L 88.672744 17.042889 C 85.041023 13.699846 90.223205 8.070683 93.854927 11.411398 L 146.421722 59.776100 C 150.174484 63.228561 144.992309 68.862381 141.241866 65.407593 Z M 149.874160 56.020996 L 97.307388 7.653968 C 93.675666 4.313253 98.857849 -1.318237 102.489570 2.022477 L 155.058685 50.389511 C 158.809142 53.844299 153.631606 59.475792 149.874175 56.021004 Z M 132.602569 74.794189 L 80.035782 26.427155 C 76.404060 23.086439 81.586242 17.452620 85.217964 20.795664 L 137.784744 69.162697 C 141.535201 72.617485 136.355346 78.248977 132.602569 74.794189 Z" transform="scale(1.000000,1.000000) translate(141.013349,259.750985)" fill="#242424" opacity="1.000000"></path>
        <path d="M 228.489348 110.120712 C 212.214125 122.903892 197.663970 138.008117 183.602706 153.584930 C 185.311477 160.478210 186.896865 167.476241 187.336852 174.369521 C 187.343368 174.491546 187.350554 174.735839 187.351226 174.858046 C 187.351912 174.980239 187.347457 175.224593 187.342299 175.346679 C 187.337172 175.468779 187.321059 175.712645 187.310103 175.834350 C 187.299148 175.956054 187.271453 176.198882 187.254699 176.319930 C 187.237960 176.440978 187.198714 176.682204 187.176223 176.802306 C 187.492858 177.068282 188.123397 177.603438 188.437316 177.872619 C 188.751220 178.141784 189.376311 178.683318 189.687468 178.955657 C 189.998641 179.228011 190.618194 179.775847 190.926574 180.051345 C 191.234954 180.326842 191.848922 180.880935 192.154494 181.159545 C 192.460067 181.438155 193.068374 181.998458 193.371093 182.280150 C 202.878753 191.217437 211.671691 200.888045 221.184005 209.825331 C 230.768477 218.832457 216.963301 233.862181 207.360198 224.845748 C 199.035186 217.023589 191.136199 208.780059 183.053298 200.713454 C 175.761916 193.440703 167.322829 187.269103 159.887130 180.264083 C 159.200957 181.033706 157.824355 182.569136 157.133926 183.334929 C 156.443496 184.100737 155.058364 185.628478 154.363677 186.390426 C 153.669006 187.152373 152.275405 188.672377 151.576492 189.430449 C 150.877578 190.188521 149.475539 191.700759 148.772414 192.454924 C 148.069305 193.209090 146.658874 194.713515 145.951568 195.463759 C 132.539825 209.625121 118.292312 222.925124 104.542999 236.751265 C 103.632064 237.671263 101.820556 239.521452 100.920005 240.451613 C 100.019454 241.381773 98.228813 243.252181 97.338760 244.192381 C 96.448699 245.132597 94.679168 247.022963 93.799720 247.973113 C 92.920265 248.923247 91.172058 250.833357 90.303321 251.793303 C 89.434585 252.753249 87.707923 254.682860 86.850013 255.652495 C 86.325752 256.390471 85.272018 257.862700 84.742553 258.596953 C 84.213089 259.331206 83.148971 260.795927 82.614326 261.526427 C 82.079689 262.256926 81.005249 263.714110 80.465454 264.440794 C 79.925666 265.167479 78.840950 266.617033 78.296035 267.339903 C 77.751121 268.062743 76.656196 269.504607 76.106186 270.223601 C 75.888061 270.507140 75.449752 271.072600 75.229561 271.354521 C 75.009376 271.636442 74.566932 272.198698 74.344688 272.479002 C 74.122444 272.759306 73.675903 273.318297 73.451614 273.596983 C 73.227317 273.875670 72.776703 274.431364 72.550377 274.708403 C 72.324051 274.985441 71.869377 275.537810 71.641037 275.813200 C 67.534401 281.391142 62.824806 287.127379 57.612358 291.979002 C 59.835621 299.240080 58.282829 306.140349 54.630157 311.664763 C 68.537780 325.651518 89.122169 335.296537 97.747497 353.003477 C 102.343017 362.431974 94.099487 371.103880 84.424217 367.486143 C 75.736030 364.236204 69.389831 357.799223 62.775917 351.529844 C 52.658321 341.943052 40.298839 334.996214 29.808765 325.819151 C 28.870571 324.997343 28.144228 324.119688 27.608782 323.209440 C 22.452208 321.873137 17.654150 318.441648 14.164441 312.270048 C 9.571249 304.142912 6.598362 296.979582 6.305031 289.671904 C -0.250686 279.875578 -1.198192 266.985319 6.111805 256.297362 C 10.185847 250.337614 14.725495 245.811934 19.900694 240.862563 C 26.025724 235.000594 30.469925 227.218001 35.347134 220.343352 C 53.105305 195.305449 77.277176 173.445296 98.059455 150.858810 C 110.304862 137.549499 119.162994 119.039375 136.255355 111.324302 C 136.489883 111.204254 136.964416 110.975120 137.204269 110.866096 C 137.444137 110.757072 137.928787 110.550231 138.173446 110.452468 C 138.418121 110.354705 138.911865 110.170608 139.160796 110.084312 C 139.409744 109.998023 139.911514 109.837058 140.164184 109.762420 C 140.416869 109.687789 140.925567 109.550308 141.181442 109.487487 C 142.373397 108.246650 143.556030 106.996505 144.750304 105.753341 C 169.611281 79.907615 195.461669 55.097858 219.163283 28.209175 C 228.498656 17.621321 238.837416 8.663084 251.927901 3.194553 C 272.256194 -5.302735 291.308745 12.301785 293.687987 31.535921 C 298.807310 72.993377 255.275588 89.082351 228.489348 110.120712 Z" transform="scale(1.000000,1.000000) translate(86.956511,72.134422)" fill="#167bab" opacity="1.000000"></path>
        <path d="M 275.071257 14.665414 C 263.915373 9.438999 251.909743 21.693720 245.659011 27.539389 C 244.057540 29.037306 240.841323 32.018845 239.226577 33.502438 C 237.611846 34.986031 234.369201 37.938805 232.741317 39.407959 C 231.113433 40.877113 227.844603 43.800892 226.203704 45.255489 C 224.562789 46.710087 221.268065 49.604637 219.614272 51.044563 C 217.960479 52.484485 214.640090 55.349579 212.973540 56.774719 C 185.009307 80.699821 161.102828 109.162254 136.025360 135.999709 C 111.187668 162.583419 83.591263 185.896255 57.927124 211.567382 C 45.483833 224.015334 34.476936 239.969283 24.680609 254.582289 C 20.017576 261.538420 16.911991 267.093108 15.016980 275.380858 C 13.177841 283.426512 16.355595 292.021574 17.873467 300.237181 C 18.576529 304.045836 21.402750 313.278776 21.402750 313.278776 C 21.402750 313.278776 6.307841 304.453245 3.905320 300.237181 C -0.247875 292.941161 1.598248 283.740813 1.048834 275.380858 C 0.494765 266.965056 4.757377 258.758757 8.663802 251.623381 C 17.428814 235.620543 29.953585 220.909758 42.324707 207.616729 C 56.425552 192.465941 72.377174 179.305633 87.500023 165.230392 C 104.022011 149.851455 119.482421 133.348098 134.824096 116.805160 C 149.281127 101.214378 163.591491 85.495559 178.360488 70.198105 C 193.169051 54.861084 209.784148 41.696106 225.542556 27.390396 C 239.696944 14.537373 270.168456 -14.057749 283.948027 10.882375 C 295.902434 32.521362 281.510588 17.682533 275.071257 14.665415 Z" transform="scale(1.000000,1.000000) translate(85.754759,70.175872)" fill="#115676" opacity="1.000000"></path>
        <path d="M 2.885772 269.342375 C 43.139640 201.787764 105.321174 152.030898 158.656203 95.560020 C 183.647551 69.097366 210.585112 44.739246 235.972227 18.704947 C 251.118346 3.177026 271.092802 -8.705211 287.561247 12.323832 C 301.573606 30.217028 306.404264 55.697250 291.181303 74.645042 C 281.582884 86.590133 269.428251 94.647422 256.237669 102.176254 C 241.652602 110.496620 228.902007 119.177818 216.642638 130.699218 C 207.144301 139.629516 196.905638 149.579482 193.120284 162.413894 C 189.279036 175.450820 202.055236 185.559112 210.145125 193.635024 C 221.140379 204.600020 239.087111 221.103377 228.482970 237.832564 C 227.395781 239.548323 225.272612 240.563338 223.331053 239.485457 C 204.534575 229.062895 188.680739 212.322081 174.165496 196.689391 C 164.173613 185.922286 149.090346 206.902434 142.499709 213.539641 C 131.415984 224.700179 120.902633 236.426436 110.508002 248.220213 C 101.526489 258.416960 92.724227 268.769682 83.924293 279.120085 C 75.939170 288.513670 59.857177 303.031218 67.115959 316.291655 C 75.692398 331.956907 98.465133 337.362577 105.514396 354.070829 C 109.634994 363.839201 106.534065 377.362699 93.604217 375.889066 C 78.411529 374.157011 67.588546 363.008116 56.285987 353.893888 C 32.079193 334.357115 -5.588242 307.566191 1.989479 271.560973 C 3.009153 266.721007 10.482111 268.369261 9.467093 273.195250 C 1.949902 308.911802 46.673580 335.784178 69.839752 355.097471 C 75.233779 359.595213 80.322845 363.438780 86.790092 366.320890 C 90.216949 367.848081 97.703872 370.599790 99.547668 365.410642 C 102.390182 357.404569 93.597236 350.592741 88.452300 346.234709 C 77.498947 336.959837 60.904792 327.426573 57.538467 312.427122 C 53.939342 296.389372 74.537704 278.444945 83.498268 267.789580 C 101.635902 246.227431 120.318298 225.026107 140.174026 205.030700 C 146.864760 198.293395 163.165587 177.385421 174.749831 186.869780 C 192.715193 201.589888 206.117629 221.180205 226.839385 232.671340 L 221.687468 234.326567 C 232.000609 218.046691 203.510253 198.533187 194.079421 187.933700 C 182.583632 175.024795 182.751250 160.178985 192.629058 146.078139 C 206.024520 126.967391 225.270293 111.087936 245.342512 99.547920 C 272.454680 83.971107 305.552214 62.676670 287.952360 26.815782 C 281.550291 13.778846 270.329191 3.188664 255.837248 11.769760 C 245.119032 18.122938 236.859190 28.971533 228.338622 37.859928 C 216.842848 49.877189 203.850142 60.625679 191.914351 72.228553 C 178.879744 84.888351 166.743758 98.374595 154.083968 111.392906 C 103.845199 163.028487 47.008815 210.231505 9.699899 272.843718 C 7.176321 277.066771 0.359866 273.579375 2.885772 269.342375 Z" transform="scale(1.000000,1.000000) translate(82.469790,66.525126)" fill="#242424" opacity="1.000000"></path>
    </g>
</svg>