<?xml version="1.0" encoding="UTF-8" standalone="no"?>
<svg
   class="svg-icon"
   style="width: 1em; height: 1em;vertical-align: middle;fill: currentColor;overflow: hidden;"
   viewBox="0 0 1024 1024"
   version="1.1"
   id="svg4"
   sodipodi:docname="logo.svg"
   inkscape:version="1.3 (0e150ed6c4, 2023-07-21)"
   xmlns:inkscape="http://www.inkscape.org/namespaces/inkscape"
   xmlns:sodipodi="http://sodipodi.sourceforge.net/DTD/sodipodi-0.dtd"
   xmlns="http://www.w3.org/2000/svg"
   xmlns:svg="http://www.w3.org/2000/svg">
  <defs
     id="defs4" />
  <sodipodi:namedview
     id="namedview4"
     pagecolor="#ffffff"
     bordercolor="#000000"
     borderopacity="0.25"
     inkscape:showpageshadow="2"
     inkscape:pageopacity="0.0"
     inkscape:pagecheckerboard="0"
     inkscape:deskcolor="#d1d1d1"
     inkscape:zoom="0.86230469"
     inkscape:cx="512"
     inkscape:cy="512"
     inkscape:window-width="1920"
     inkscape:window-height="1131"
     inkscape:window-x="0"
     inkscape:window-y="0"
     inkscape:window-maximized="1"
     inkscape:current-layer="svg4" />
  <path
     d="M391.48544 153.34912l-115.6096 106.37312c-8.25856 7.59808 3.13856 19.98336 11.39712 12.38528l115.6096-106.37312c7.9872-7.3472-3.40992-19.73248-11.39712-12.38528zM410.48064 173.99296l-115.6096 106.368c-7.99232 7.35232 3.40992 19.73248 11.39712 12.38528l115.6096-106.368c8.25344-7.59296-3.13856-19.98336-11.39712-12.38528zM486.46144 256.57344l-115.6096 106.368c-8.25344 7.59808 3.13856 19.98336 11.39712 12.38528l115.6096-106.37312c8.25344-7.59296-3.14368-19.98336-11.39712-12.38016zM524.45184 297.86112l-115.6096 106.368c-7.9872 7.35232 3.40992 19.73248 11.39712 12.38528l115.6096-106.37312c8.25856-7.59296-3.14368-19.97824-11.39712-12.38016zM467.46624 235.92448l-115.6096 106.37312c-8.25856 7.59296 3.13856 19.98336 11.39712 12.38528l115.6096-106.368c8.25856-7.59808-3.13856-19.98336-11.39712-12.3904zM505.45664 277.21728L389.84704 383.5904c-7.9872 7.35232 3.40992 19.73248 11.40224 12.38528l115.6096-106.368c8.25344-7.6032-3.1488-19.98848-11.40224-12.3904zM429.47584 194.6368l-115.6096 106.37312c-8.25856 7.59808 3.13856 19.98336 11.39712 12.38528l115.6096-106.368c8.25856-7.59808-3.13856-19.98848-11.39712-12.3904zM448.47104 215.28064l-115.6096 106.368c-7.99232 7.35232 3.40992 19.7376 11.39712 12.3904l115.6096-106.37312c8.25344-7.59296-3.13856-19.98336-11.39712-12.38528zM543.45216 318.50496L427.83744 424.87296c-8.25856 7.59808 3.13856 19.98336 11.40224 12.38528l115.60448-106.368c8.25344-7.59808-3.14368-19.98336-11.392-12.38528zM581.44256 359.79264L465.82784 466.16064c-7.9872 7.35232 3.40992 19.73248 11.39712 12.38528l115.6096-106.368c8.25344-7.59296-3.14368-19.98336-11.392-12.38528zM600.42752 380.43648L484.81792 486.8096c-7.9872 7.3472 3.40992 19.73248 11.39712 12.38528l115.61472-106.37312c8.24832-7.59808-3.13856-19.98336-11.40224-12.38528zM562.44224 339.1488l-115.6096 106.37312c-7.9872 7.3472 3.40992 19.7376 11.39712 12.38528l115.6096-106.37312c8.24832-7.59808-3.14368-19.98336-11.39712-12.38528z"
     fill="#666666"
     id="path1" />
  <path
     d="M654.4384 674.07872c-35.79392-28.11392-67.79392-61.33248-98.71872-95.5904 3.75808-15.16032 7.2448-30.55104 8.21248-45.71136a22.54848 22.54848 0 0 0-0.35328-5.3504 358.41536 358.41536 0 0 0 13.62432-12.04736c20.91008-19.65568 40.24832-40.92416 61.16864-60.57984 21.07904-19.80928-9.28256-52.864-30.40256-33.03424-18.30912 17.2032-35.68128 35.33312-53.45792 53.07392-16.03584 15.99488-34.59584 29.568-50.94912 44.97408a1630.3872 1630.3872 0 0 0-30.64832-33.42848c-29.49632-31.14496-60.83072-60.39552-91.06944-90.8032a1014.94784 1014.94784 0 0 1-38.912-41.56928 1126.72768 1126.72768 0 0 0-23.6288-32.04608 430.04928 430.04928 0 0 0-9.82016-12.29312c-9.03168-12.26752-19.38944-24.8832-30.85312-35.55328 4.8896-15.96928 1.47456-31.14496-6.55872-43.29472 30.58688-30.76096 75.85792-51.97312 94.82752-90.91584 10.10688-20.736-8.02304-39.808-29.30176-31.85152-19.10784 7.14752-33.06496 21.30432-47.61088 35.09248-22.25152 21.08416-49.4336 36.36224-72.50432 56.54528-2.06336 1.80736-3.6608 3.7376-4.8384 5.73952-11.3408 2.93888-21.89312 10.48576-29.568 24.05888-10.10176 17.87392-16.64 33.62816-17.28512 49.69984-14.41792 21.54496-16.50176 49.8944-0.42496 73.40032 8.96 13.1072 18.944 23.06048 30.32576 33.9456 13.47072 12.89216 23.2448 30.00832 33.9712 45.12768 39.05536 55.0656 92.21632 103.1424 137.92256 152.81664 26.9312 29.27104 46.4128 69.98016 84.00384 86.94784a49.87392 49.87392 0 0 0 10.83392 4.03968c2.62144 2.72896 5.2224 5.4784 7.84896 8.21248 54.67648 56.84224 111.52896 111.40608 163.65568 170.54208 20.5312 23.28576 43.26912 42.98752 72.05888 55.0144 44.70784 18.688 86.60992-20.02944 91.84256-62.33088 11.25888-91.17696-84.48-126.56128-143.39072-172.83072z"
     fill="#FF9D00"
     id="path2"
     style="fill:#13a3d4;fill-opacity:1" />
  <path
     d="M754.24256 888.32c-24.53504 11.4944-50.93888-15.45728-64.68608-28.3136a2165.93408 2165.93408 0 0 0-71.8848-64.29696c-61.50144-52.61824-114.07872-115.21536-169.23136-174.23872-54.62528-58.46528-115.31776-109.73696-171.76064-166.1952-27.3664-27.37664-51.57376-62.464-73.11872-94.60224-10.25536-15.29856-17.08544-27.51488-21.25312-45.74208-4.0448-17.69472 2.944-36.59776 6.28224-54.66624 1.54624-8.37632 7.76192-28.68224 7.76192-28.68224s-33.19808 19.40992-38.48192 28.68224c-9.13408 16.04608-5.07392 36.28032-6.28224 54.66624-1.21856 18.5088 8.15616 36.5568 16.74752 52.2496 19.2768 35.19488 46.8224 67.54816 74.03008 96.78336 31.01184 33.32096 66.09408 62.26432 99.3536 93.21984 36.33664 33.82272 70.33856 70.1184 104.07936 106.50112 31.7952 34.28864 63.26784 68.85888 95.74912 102.5024 32.56832 33.73056 69.10976 62.68416 103.76704 94.14656 31.1296 28.26752 98.14528 91.15648 128.45056 36.30592 26.2912-47.5904-5.36064-14.95552-19.52256-8.32z"
     fill="#FFB15C"
     id="path3"
     style="fill:#1599c5;fill-opacity:1" />
  <path
     d="M148.4032 336.24064c88.52992 148.57216 225.28512 258.00192 342.58432 382.19776 54.9632 58.19904 114.20672 111.7696 170.04032 169.02656 33.31072 34.1504 77.24032 60.28288 113.4592 14.03392 30.81728-39.35232 41.44128-95.39072 7.9616-137.0624-21.10976-26.27072-47.84128-43.99104-76.8512-60.54912-32.0768-18.29888-60.11904-37.39136-87.08096-62.73024-20.8896-19.64032-43.40736-41.5232-51.73248-69.74976-8.448-28.672 19.65056-50.90304 37.44256-68.66432 24.18176-24.1152 63.65184-60.41088 40.33024-97.2032-2.39104-3.77344-7.06048-6.00576-11.33056-3.6352-41.33888 22.92224-76.20608 59.74016-108.12928 94.12096-21.97504 23.68-55.14752-22.46144-69.64224-37.05856-24.37632-24.54528-47.49824-50.33472-70.35904-76.27264-19.75296-22.4256-39.11168-45.19424-58.46528-67.95776-17.5616-20.6592-52.93056-52.58752-36.9664-81.75104 18.86208-34.45248 68.94592-46.34112 84.44928-83.08736 9.0624-21.48352 2.24256-51.2256-26.19392-47.98464-33.41312 3.80928-57.216 28.32896-82.0736 48.37376-53.23776 42.96704-136.07936 101.888-119.41376 181.07392 2.24256 10.64448 18.67776 7.01952 16.44544-3.59424-16.53248-78.55104 81.82784-137.6512 132.77696-180.12672 11.86304-9.89184 23.05536-18.34496 37.27872-24.68352 7.53664-3.35872 24.00256-9.41056 28.0576 2.00192 6.25152 17.60768-13.08672 32.5888-24.40192 42.17344-24.0896 20.39808-60.58496 41.36448-67.98848 74.35264-7.91552 35.27168 37.38624 74.73664 57.09312 98.17088 39.88992 47.42144 80.97792 94.04928 124.6464 138.02496 14.71488 14.81728 50.56512 60.8 76.04224 39.94112 39.51104-32.37376 68.98688-75.45856 114.56-100.73088l-11.33056-3.64032c22.6816 35.80416-39.97696 78.72-60.71808 102.03136-25.28256 28.3904-24.91392 61.04064-3.18976 92.05248 29.46048 42.03008 71.78752 76.9536 115.93216 102.33344 59.62752 34.25792 132.41856 81.09056 93.71136 159.95904-14.08 28.672-38.7584 51.96288-70.6304 33.09056-23.57248-13.97248-41.73824-37.83168-60.47744-57.37984-25.28256-26.42944-53.85728-50.06848-80.10752-75.58656-28.66688-27.84256-55.35744-57.50272-83.2-86.13376-110.4896-113.5616-235.48928-217.37472-317.5424-355.07712-5.55008-9.28768-20.54144-1.61792-14.98624 7.70048z"
     fill="#666666"
     id="path4" />
</svg>
